<?xml version="1.0" standalone="no"?><!DOCTYPE svg PUBLIC "-//W3C//DTD SVG 1.1//EN" "http://www.w3.org/Graphics/SVG/1.1/DTD/svg11.dtd"><svg t="1692797400973" class="icon" viewBox="0 0 1280 1024" version="1.1" xmlns="http://www.w3.org/2000/svg" p-id="3291" xmlns:xlink="http://www.w3.org/1999/xlink" width="250" height="200"><path d="M645.052632 995.705263c-7.073684-0.336842-12.8-2.69473701-17.178948-7.410526L26.610526 355.705263c-4.378947-4.715789-6.736842-10.778947-6.4-17.178947 0.336842-6.4 3.031579-12.463158 7.747369-16.84210499L368.168421 6.73684199c4.378947-4.042105 10.105263-6.4 16.16842101-6.39999999L902.736842 0.336842c6.063158 0 11.452632 2.021053 15.831579 6.063158l353.010526 317.978947c4.715789 4.378947 7.74736799 10.442105 7.747369 16.842106s-2.35789499 12.8-6.736842 17.515789l-610.357895 629.894737c-4.378947 4.715789-10.778947 7.073684-17.178947 7.073684zM78.147368 340.210526l567.242106 597.221053 576-594.189474-327.747369-295.410526L393.768421 47.831579 78.147368 340.210526z" fill="#1296db" p-id="3292"></path><path d="M1252.378947 363.115789L50.52631599 363.115789c-13.136842 0-23.915789-10.778947-23.91578999-23.915789s10.778947-23.915789 23.91579-23.915789l1202.189473 0c13.136842 0 23.915789 10.778947 23.91579 23.915789s-11.115789 23.915789-24.252632 23.915789z" fill="#1296db" p-id="3293"></path><path d="M648.421053 1002.105263c-8.421053 0-16.842105-4.71578901-21.221053-12.8L283.62105301 343.578947c-2.694737-5.389474-3.705263-11.452632-2.02105301-17.51578901l82.52631599-305.17894699c3.368421-12.8 16.505263-20.210526 29.30526301-16.842106 12.8 3.368421 20.210526 16.505263 16.842105 29.305263L330.442105 330.105263l338.863158 637.305263c6.063158 11.789474 1.684211 25.936842-9.768421 32.336842-3.705263 1.684211-7.410526 2.357895-11.115789 2.357895z" fill="#1296db" p-id="3294"></path><path d="M660.884211 973.47368401c-3.705263 0-7.410526-1.010526-11.11579-2.69473701-11.789474-6.063158-16.168421-20.547368-10.105263-32.336842l323.031579-614.736842-83.2-289.68421c-3.705263-12.8 3.705263-25.936842 16.168421-29.642106 12.8-3.705263 25.936842 3.705263 29.642105 16.168421L1011.536842 320c1.684211 6.063158 1.010526 12.126316-1.68421 17.852632l-327.410527 623.15789399c-4.715789 8.084211-12.8 12.463158-21.557894 12.46315802z" fill="#1296db" p-id="3295"></path></svg>